<svg xmlns="http://www.w3.org/2000/svg" width="80" height="80" viewBox="0 0 80 80"><g transform="translate(-410 -2766)"><circle cx="40" cy="40" r="40" transform="translate(410 2766)" fill="#252525"/><path d="M50.392,8.117,33.628.027a.726.726,0,0,0-.649,0L16.223,8.117a.752.752,0,0,0-.423.671v19.65a.752.752,0,0,0,.423.671L32.979,37.2a.711.711,0,0,0,.321.073.794.794,0,0,0,.321-.073l16.756-8.09a.752.752,0,0,0,.423-.671V8.787A.726.726,0,0,0,50.392,8.117ZM34.051,17.344l3.622-1.749a.742.742,0,0,0-.073-1.37.766.766,0,0,0-.569.029l-3.724,1.8L31.9,15.376a.734.734,0,0,0-.569-.029.7.7,0,0,0-.423.379.737.737,0,0,0,.35.991l1.312.634v18L17.294,27.971v-18l11.647,5.619a.711.711,0,0,0,.321.073.752.752,0,0,0,.671-.423.737.737,0,0,0-.35-.991L18.256,8.787l4.9-2.369,16.057,7.748v6.363a.743.743,0,0,0,1.071.671l4.045-1.953a.752.752,0,0,0,.423-.671V12.184l4.577-2.208v18L34.051,35.34Zm6.647,2V14.137l2.558-1.232v5.211Zm3.637-8.622c-.007,0-.007-.007-.015-.007L29.291,3.467l4.016-1.939L48.351,8.787ZM24.9,5.61l2.7-1.3,15.022,7.252-2.7,1.3Z" transform="translate(417.199 2787.051)" fill="#f5f5f5"/></g></svg>