<svg xmlns="http://www.w3.org/2000/svg" width="80" height="80" viewBox="0 0 80 80"><g transform="translate(-1195 -2766)"><circle cx="40" cy="40" r="40" transform="translate(1195 2766)" fill="#252525"/><g transform="translate(1215 2787)"><path d="M46.786,40.713H53.07A3.932,3.932,0,0,0,57,36.786.786.786,0,0,0,56.212,36H49.928A3.932,3.932,0,0,0,46,39.928.786.786,0,0,0,46.786,40.713Zm3.142-3.143h5.364a2.36,2.36,0,0,1-2.222,1.572H47.706A2.362,2.362,0,0,1,49.928,37.57Z" transform="translate(-42.387 -34.429)" fill="#f5f5f5"/><path d="M206.786,22.284h9.426a3.931,3.931,0,0,0,3.126-1.571H222.5a3.932,3.932,0,0,0,3.928-3.928.785.785,0,0,0-.786-.786h-9.426a3.931,3.931,0,0,0-3.126,1.571h-3.158A3.932,3.932,0,0,0,206,21.5.786.786,0,0,0,206.786,22.284Zm3.142-3.142h3.578a.785.785,0,0,0,.679-.39,2.333,2.333,0,0,1,2.027-1.181h8.506a2.36,2.36,0,0,1-2.222,1.572h-3.578a.785.785,0,0,0-.679.39,2.33,2.33,0,0,1-2.027,1.181h-8.506A2.361,2.361,0,0,1,209.928,19.142Z" transform="translate(-189.818 -16)" fill="#f5f5f5"/><ellipse cx="1" cy="0.5" rx="1" ry="0.5" transform="translate(38.36 24.746)" fill="#f5f5f5"/><path d="M39.812,125.523a.786.786,0,0,0-.8.025l-8.691,5.518v-4.855a.786.786,0,0,0-1.207-.663l-8.691,5.518v-4.855a.781.781,0,0,0-.782-.784l-.792-8.714a.786.786,0,0,0-.782-.714H14.925a.786.786,0,0,0-.782.714l-1.182,13.005L11,131.028v-4.816a.786.786,0,0,0-1.221-.654l-1.056.7-.868-9.548A.786.786,0,0,0,7.07,116H3.928a.786.786,0,0,0-.782.714l-1.283,14.12L.35,131.842A.786.786,0,0,0,0,132.5v12.568a.785.785,0,0,0,.786.786H39.433a.785.785,0,0,0,.786-.786v-8.169a.786.786,0,1,0-1.571,0v2.671H33.463v-3.928a.785.785,0,0,0-.786-.786H23.252a.785.785,0,0,0-.786.786v3.928H17.282v-3.928a.785.785,0,0,0-.786-.786H7.07a.785.785,0,0,0-.786.786v3.928H1.571v-6.649l7.855-5.237V132.5a.785.785,0,0,0,1.221.654l8.205-5.47V132.5a.786.786,0,0,0,1.207.663l8.691-5.518V132.5a.786.786,0,0,0,1.207.663l8.691-5.518v2.184a.786.786,0,1,0,1.571,0v-3.613a.786.786,0,0,0-.407-.688Zm-1.164,15.613v3.142H33.463v-3.142Zm-6.756,3.142H28.75v-7.855h3.142Zm-7.855-7.855h3.142v7.855H24.037Zm-1.571,4.713v3.142H17.282v-3.142Zm-6.756,3.142H12.568v-7.855H15.71Zm-7.855-7.855H11v7.855H7.855Zm-1.571,4.713v3.142H1.571v-3.142ZM4.359,120.713H6.638l.594,6.541-3.691,2.461Zm1.993-3.142.143,1.571H4.5l.143-1.571Zm11,0,.143,1.571H15.5l.143-1.571Zm-1.993,3.142h2.279l.5,5.553-3.5,2.334Z" transform="translate(0 -108.145)" fill="#f5f5f5"/></g></g></svg>