<svg xmlns="http://www.w3.org/2000/svg" width="80" height="80" viewBox="0 0 80 80"><g transform="translate(-803 -2766)"><circle cx="40" cy="40" r="40" transform="translate(803 2766)" fill="#252525"/><g transform="translate(818 2791)"><g transform="translate(9.483 23.706)"><path d="M97.723,344.693a1.53,1.53,0,1,0,1.53,1.53A1.531,1.531,0,0,0,97.723,344.693Z" transform="translate(-96.193 -344.693)" fill="#f5f5f5"/></g><g transform="translate(41.091 23.706)"><path d="M418.369,344.693a1.53,1.53,0,1,0,1.53,1.53A1.531,1.531,0,0,0,418.369,344.693Z" transform="translate(-416.839 -344.693)" fill="#f5f5f5"/></g><g transform="translate(0 0)"><path d="M48.885,118.11l-5.692-1.9-2.66-7.316a2.327,2.327,0,0,0-2.18-1.527H31.506v-1.631a1.531,1.531,0,0,0-1.53-1.53H1.53A1.531,1.531,0,0,0,0,105.739v21.336a1.531,1.531,0,0,0,1.53,1.53H6.4a4.69,4.69,0,1,0,9.227,0H38.007a4.69,4.69,0,1,0,9.181-.221l1.565-.782a3.093,3.093,0,0,0,1.719-2.782v-4.508A2.317,2.317,0,0,0,48.885,118.11ZM1.479,105.739a.051.051,0,0,1,.051-.051H29.977a.051.051,0,0,1,.051.051v15.855H1.479Zm9.533,26.918a3.212,3.212,0,1,1,3.212-3.212A3.215,3.215,0,0,1,11.012,132.657Zm19.016-5.532H15.086a4.686,4.686,0,0,0-8.148,0H1.53a.051.051,0,0,1-.051-.051v-4H30.028Zm10.063-15.116,1.474,4.053H39.977L38.5,112.009h1.587Zm-8.585-3.161h6.846a.844.844,0,0,1,.79.554l.41,1.129H31.506Zm0,3.161H36.93l1.474,4.053h-6.9ZM42.62,132.657a3.212,3.212,0,1,1,3.212-3.212A3.215,3.215,0,0,1,42.62,132.657Zm6.373-11.063h-.841a.739.739,0,0,0,0,1.479h.841v1.747a1.623,1.623,0,0,1-.9,1.459l-1.464.732a4.687,4.687,0,0,0-8.081.115h-7.04v-4.053H44.991a.739.739,0,1,0,0-1.479H31.506v-4.053H42.5l5.917,1.972a.84.84,0,0,1,.575.8v1.282Z" transform="translate(0 -104.209)" fill="#f5f5f5"/></g></g></g></svg>