<svg xmlns="http://www.w3.org/2000/svg" width="97.5" height="37.5" viewBox="0 0 97.5 37.5">
  <defs>
    <style>
      .cls-1 {
        fill: #f5f5f5;
        fill-rule: evenodd;
      }
    </style>
  </defs>
  <path id="header_logo.svg" data-name="header/logo.svg" class="cls-1" d="M256.91,179.362a3.27,3.27,0,0,0-2.292.809,2.57,2.57,0,0,0-.2,3.692,7.32,7.32,0,0,0,1.726,1.27q1.04,0.569,2.231,1.091a11.7,11.7,0,0,1,2.231,1.286,6.734,6.734,0,0,1,1.726,1.854,5.158,5.158,0,0,1,.687,2.794,6.4,6.4,0,0,1-.58,2.738,6.006,6.006,0,0,1-1.65,2.121,7.449,7.449,0,0,1-2.551,1.346,11.087,11.087,0,0,1-3.316.463,11.555,11.555,0,0,1-2.948-.342,5.694,5.694,0,0,1-1.97-.854q0.3-1.046.519-1.912t0.367-1.884h0.58a3.881,3.881,0,0,0,.459,1.241,3.96,3.96,0,0,0,.855,1.032,3.782,3.782,0,0,0,1.253.7,5,5,0,0,0,1.65.254,3.625,3.625,0,0,0,2.7-.9,2.989,2.989,0,0,0,.87-2.154,2.613,2.613,0,0,0-.671-1.855,6.735,6.735,0,0,0-1.681-1.269q-1.01-.553-2.2-1.077a11.277,11.277,0,0,1-2.2-1.271,6.481,6.481,0,0,1-1.68-1.838,5.258,5.258,0,0,1-.673-2.8,6.363,6.363,0,0,1,.566-2.751,5.918,5.918,0,0,1,1.512-2,6.612,6.612,0,0,1,2.184-1.225,8.106,8.106,0,0,1,2.613-.419,9.628,9.628,0,0,1,2.887.389,6.694,6.694,0,0,1,2.124,1.076q-0.276.687-.473,1.331t-0.5,1.628h-0.458A3.656,3.656,0,0,0,256.91,179.362Zm17.314,11.273q-0.671-1.824-1.329-3.574t-1.39-3.542q-0.793,1.792-1.5,3.542t-1.376,3.574l-0.793,1.763q-0.613,1.527-1.131,3.05t-0.947,2.989a4.553,4.553,0,0,0-.718-0.059h-1.451a5.893,5.893,0,0,0-.795.059q0.367-.776.978-2.152t1.344-3.109q0.733-1.734,1.573-3.722t1.682-4.023q0.84-2.03,1.649-4.006t1.482-3.677q0.3,0.06.581,0.105a3.767,3.767,0,0,0,1.161,0q0.274-.045.58-0.105,0.978,2.543,2.093,5.441t2.246,5.7q1.129,2.8,2.2,5.307t1.954,4.244q-0.732-.059-1.389-0.059h-2.6q-0.657,0-1.3.059-0.489-1.463-1.008-2.989t-1.1-3.05Zm12.01-9.449a7.125,7.125,0,0,0-.076-1.045c-0.306,0-.682.009-1.131,0.03s-0.926.044-1.436,0.072-1.028.072-1.557,0.12-1.019.106-1.467,0.166q0.06-.328.107-0.658a4.736,4.736,0,0,0,0-1.317q-0.047-.326-0.107-0.656,1.038,0.029,1.879.06c0.56,0.019,1.131.035,1.71,0.044s1.212,0.02,1.895.03,1.5,0.015,2.46.015,1.777,0,2.459-.015,1.308-.019,1.879-0.03,1.125-.025,1.665-0.044,1.125-.041,1.757-0.06q-0.061.33-.106,0.656a4.637,4.637,0,0,0,0,1.317q0.045,0.33.106,0.658c-0.408-.06-0.865-0.114-1.375-0.166s-1.013-.089-1.512-0.12-0.973-.054-1.42-0.072-0.826-.03-1.131-0.03a2.923,2.923,0,0,0-.046.417c-0.011.18-.015,0.388-0.015,0.628v9.06q0,2.482.061,4.41t0.183,3.781a10.137,10.137,0,0,0-1.13-.059h-2.751a10.123,10.123,0,0,0-1.13.059q0.122-1.851.183-3.781t0.062-4.41v-7.475Q286.25,181.906,286.234,181.186Zm20.7,9.449q-0.671-1.824-1.328-3.574t-1.391-3.542q-0.793,1.792-1.5,3.542t-1.375,3.574l-0.794,1.763q-0.612,1.527-1.13,3.05t-0.948,2.989a4.553,4.553,0,0,0-.718-0.059h-1.451a5.9,5.9,0,0,0-.8.059q0.368-.776.978-2.152t1.344-3.109q0.735-1.734,1.574-3.722t1.681-4.023q0.84-2.03,1.649-4.006t1.482-3.677q0.3,0.06.581,0.105a3.767,3.767,0,0,0,1.161,0q0.274-.045.58-0.105,0.978,2.543,2.093,5.441t2.246,5.7q1.131,2.8,2.2,5.307t1.954,4.244q-0.732-.059-1.389-0.059h-2.6q-0.656,0-1.3.059-0.49-1.463-1.009-2.989t-1.1-3.05Zm14.89,4.1a32.666,32.666,0,0,0,.213,3.706,10.123,10.123,0,0,0-1.13-.059h-2.75a10.123,10.123,0,0,0-1.13.059q0.122-1.851.183-3.781t0.061-4.41V186.18q0-2.481-.061-4.41T317.03,177.9c0.346,0.039.723,0.075,1.13,0.1s0.866,0.045,1.375.045,0.968-.015,1.375-0.045,0.784-.065,1.13-0.1a20.6,20.6,0,0,0-.2,2.691q-0.045,1.792-.046,3.977v2.869q1.039-1.2,2.23-2.616t2.292-2.766q1.1-1.344,1.986-2.466t1.283-1.689c0.286,0.039.57,0.075,0.856,0.1a8.148,8.148,0,0,0,.855.045,8.616,8.616,0,0,0,.871-0.045c0.3-.029.616-0.065,0.963-0.1q-0.52.507-1.589,1.644t-2.277,2.451q-1.208,1.317-2.306,2.557t-1.711,1.958q0.976,1.467,2.169,3.229t2.368,3.454q1.175,1.689,2.184,3.11t1.619,2.136q-0.885-.059-1.588-0.059h-2.7q-0.657,0-1.329.059-1.557-2.269-3.055-4.619t-3.056-4.679H321.8Q321.8,192.4,321.827,194.731Zm14.009-12.961q-0.054-1.931-.16-3.872,1.374,0.029,2.718.09t2.72,0.059q2.262,0,4.018-.045t2.367-.1a5.258,5.258,0,0,0-.122,1.255,7.111,7.111,0,0,0,.031.748c0.02,0.18.05,0.378,0.091,0.6q-0.885-.06-1.94-0.12c-0.7-.041-1.385-0.079-2.047-0.119s-1.258-.071-1.787-0.089-0.906-.03-1.131-0.03q-0.122,1.644-.137,3.258t-0.015,3.259q1.986-.03,3.59-0.09t3.345-.149q-0.092.508-.122,0.777a5.129,5.129,0,0,0-.03.568,2.745,2.745,0,0,0,.046.494c0.03,0.169.065,0.414,0.106,0.732q-3.483-.27-6.935-0.269,0,0.957-.015,1.914t-0.016,1.913q0,1.944.092,3.737,1.742,0,3.483-.089t3.513-.3q-0.062.33-.091,0.6a9.028,9.028,0,0,0,0,1.5,2.12,2.12,0,0,0,.091.447q-0.824-.027-2.031-0.043t-3.315-.016H337.31q-0.689,0-1.039.016c-0.234.01-.432,0.025-0.6,0.043q0.107-1.851.16-3.781t0.053-4.41V186.18Q335.889,183.7,335.836,181.77Zm-75.318,22.219a4.98,4.98,0,0,0-.917-0.567,5.915,5.915,0,0,0-1.118-.394,5.452,5.452,0,0,0-1.31-.152,6.391,6.391,0,0,0-2.118.341,4.519,4.519,0,0,0-1.705,1.05,4.913,4.913,0,0,0-1.136,1.792,8.052,8.052,0,0,0-.046,4.943,4.6,4.6,0,0,0,2.795,2.906,6.329,6.329,0,0,0,2.3.4c0.256,0,.525-0.011.806-0.036s0.552-.06.815-0.107a6.263,6.263,0,0,0,.734-0.179,2.758,2.758,0,0,0,.577-0.252c0.013-.359.021-0.718,0.027-1.076s0.01-.725.01-1.095q0-.627-0.028-1.256t-0.064-1.2a4.486,4.486,0,0,0,.88.09c0.135,0,.269-0.006.4-0.018a1.856,1.856,0,0,0,.386-0.072q-0.037.414-.055,1.3t-0.019,2.341c0,0.239,0,.482.009,0.726s0.01,0.487.01,0.727c-0.257.1-.578,0.194-0.963,0.3a11.34,11.34,0,0,1-1.229.251q-0.65.1-1.3,0.18a9.838,9.838,0,0,1-1.182.081,10.421,10.421,0,0,1-2.943-.387,5.784,5.784,0,0,1-2.227-1.191,5.362,5.362,0,0,1-1.412-2.011,7.276,7.276,0,0,1-.494-2.78,6.809,6.809,0,0,1,.513-2.718,5.622,5.622,0,0,1,1.448-2.018,6.324,6.324,0,0,1,2.264-1.255,9.513,9.513,0,0,1,2.943-.43,12.385,12.385,0,0,1,1.659.1,8.938,8.938,0,0,1,1.283.26,8.385,8.385,0,0,1,.981.341q0.422,0.179.751,0.34a3.1,3.1,0,0,0-.266.646,4.149,4.149,0,0,0-.156.735h-0.22A4.643,4.643,0,0,0,260.518,203.989Zm13.651,0.779q-0.047-1.14-.1-2.323c0.354,0.023.7,0.045,1.045,0.063s0.691,0.026,1.045.026,0.7-.014,1.045-0.044,0.69-.045,1.045-0.045a7.315,7.315,0,0,1,1.467.143,3.611,3.611,0,0,1,1.219.476,2.407,2.407,0,0,1,.824.871,3.046,3.046,0,0,1-.092,2.825,3.618,3.618,0,0,1-.962,1.022,4.756,4.756,0,0,1-1.218.628,6.223,6.223,0,0,1-1.183.3q0.221,0.268.605,0.754c0.256,0.322.544,0.679,0.862,1.066s0.647,0.8.989,1.22,0.673,0.832.991,1.22,0.616,0.745.9,1.069,0.508,0.567.679,0.734a4.244,4.244,0,0,0-.55-0.036H281.7a3.847,3.847,0,0,0-.533.036q-0.274-.377-0.833-1.13t-1.238-1.614q-0.678-.863-1.383-1.714t-1.293-1.444h-0.7v1.309q0,1.185.045,2.333t0.1,2.26c-0.281-.024-0.581-0.036-0.9-0.036s-0.618.012-.9,0.036q0.056-1.112.1-2.26t0.046-2.333v-3.085Q274.215,205.907,274.169,204.768Zm2.108,3.417c0.2,0.014.424,0.019,0.669,0.019a5.887,5.887,0,0,0,1.183-.127,3.423,3.423,0,0,0,1.127-.439,2.64,2.64,0,0,0,.853-0.843,2.435,2.435,0,0,0,.339-1.336,2.28,2.28,0,0,0-.266-1.157,2.1,2.1,0,0,0-.687-0.727,2.655,2.655,0,0,0-.917-0.368,5.013,5.013,0,0,0-.971-0.1c-0.429,0-.783.008-1.064,0.028s-0.52.037-.715,0.061q-0.036.987-.073,1.956t-0.037,1.937v1.022A3.576,3.576,0,0,0,276.277,208.185Zm16.935-2.269a5.7,5.7,0,0,1,1.412-2.018,6.121,6.121,0,0,1,2.173-1.255,9.182,9.182,0,0,1,5.554,0,6.139,6.139,0,0,1,2.173,1.255,5.667,5.667,0,0,1,1.411,2.018,7.581,7.581,0,0,1,0,5.436,5.667,5.667,0,0,1-1.411,2.018,5.83,5.83,0,0,1-2.173,1.229,9.746,9.746,0,0,1-5.554,0,5.814,5.814,0,0,1-2.173-1.229,5.7,5.7,0,0,1-1.412-2.018A7.581,7.581,0,0,1,293.212,205.916Zm11.046,0.143a4.867,4.867,0,0,0-1.072-1.792,4.27,4.27,0,0,0-1.614-1.05,6.027,6.027,0,0,0-4,0,4.263,4.263,0,0,0-1.612,1.05,4.869,4.869,0,0,0-1.073,1.792,8.8,8.8,0,0,0,0,5.15A4.865,4.865,0,0,0,295.963,213a4.263,4.263,0,0,0,1.612,1.05,6.01,6.01,0,0,0,4,0,4.27,4.27,0,0,0,1.614-1.05,4.863,4.863,0,0,0,1.072-1.793A8.826,8.826,0,0,0,304.258,206.059Zm22.346-1.712a18.316,18.316,0,0,0-.092-1.9c0.135,0.023.263,0.045,0.385,0.063a2.65,2.65,0,0,0,.366.026,1.979,1.979,0,0,0,.551-0.089c-0.037.419-.074,0.917-0.111,1.5s-0.067,1.2-.091,1.866-0.05,1.345-.074,2.045-0.042,1.377-.054,2.036a6.384,6.384,0,0,1-.376,2.152,4.478,4.478,0,0,1-1.018,1.615,4.223,4.223,0,0,1-1.622,1,6.578,6.578,0,0,1-2.209.342,5.547,5.547,0,0,1-4-1.22,5.2,5.2,0,0,1-1.246-3.858c0-.561.014-1.061,0.045-1.5s0.046-.879.046-1.335q0-1.506-.037-2.673T317,202.445c0.146,0.023.305,0.045,0.476,0.063s0.33,0.026.477,0.026a3.008,3.008,0,0,0,.394-0.026c0.128-.018.26-0.04,0.395-0.063-0.026.263-.05,0.607-0.074,1.031s-0.049.906-.074,1.444-0.043,1.119-.054,1.741-0.018,1.268-.018,1.938c0,0.407,0,.827.018,1.265a8.382,8.382,0,0,0,.128,1.273,5.271,5.271,0,0,0,.358,1.185,2.919,2.919,0,0,0,.7.985,3.273,3.273,0,0,0,1.155.665,5.281,5.281,0,0,0,1.723.242,4.413,4.413,0,0,0,1.7-.288,3.207,3.207,0,0,0,1.127-.753,3.424,3.424,0,0,0,.688-1.077,5.98,5.98,0,0,0,.357-1.274,9.771,9.771,0,0,0,.129-1.327c0.012-.442.018-0.85,0.018-1.22Q326.622,205.73,326.6,204.347Zm12.929,0.421q-0.045-1.14-.1-2.323c0.294,0.023.59,0.045,0.89,0.063s0.6,0.026.889,0.026c0.146,0,.323,0,0.532-0.017s0.417-.021.632-0.027,0.418-.014.614-0.027,0.36-.018.5-0.018c0.184,0,.409.006,0.679,0.018a5.91,5.91,0,0,1,.852.108,4.867,4.867,0,0,1,.889.268,2.506,2.506,0,0,1,1.375,1.372,3.206,3.206,0,0,1,.22,1.266,3.245,3.245,0,0,1-.523,1.92,3.748,3.748,0,0,1-1.283,1.147,5.088,5.088,0,0,1-1.614.556,9.18,9.18,0,0,1-1.511.145c-0.282,0-.538,0-0.771-0.01s-0.47-.021-0.714-0.045v0.986q0,1.185.045,2.333t0.1,2.26q-0.421-.036-0.9-0.036t-0.9.036q0.055-1.112.1-2.26t0.047-2.333v-3.085Q339.58,205.907,339.533,204.768Zm2.851,3.811a5.671,5.671,0,0,0,1.173-.125,3.175,3.175,0,0,0,1.11-.458,2.522,2.522,0,0,0,.824-0.914,3.674,3.674,0,0,0,.1-2.754,1.771,1.771,0,0,0-.614-0.753,2.417,2.417,0,0,0-.963-0.368,7.627,7.627,0,0,0-1.283-.1h-1.649v5.328A5.81,5.81,0,0,0,342.384,208.579Z" transform="translate(-250 -177.5)"/>
</svg>
