<svg xmlns="http://www.w3.org/2000/svg" width="50" height="49.969" viewBox="0 0 50 49.969">
  <defs>
    <style>
      .cls-1 {
        fill: #222;
        fill-rule: evenodd;
      }
    </style>
  </defs>
  <path id="common_tel.svg" data-name="common/tel.svg" class="cls-1" d="M227.015,581.073a3.5,3.5,0,0,0-5.3,0c-1.238,1.228-2.477,2.456-3.694,3.7a0.729,0.729,0,0,1-1.02.187c-0.8-.436-1.654-0.79-2.424-1.269a38.4,38.4,0,0,1-9.26-8.428A21.921,21.921,0,0,1,202,569.95a0.761,0.761,0,0,1,.187-0.978c1.238-1.2,2.445-2.424,3.662-3.652a3.517,3.517,0,0,0-.01-5.421c-0.968-.978-1.935-1.935-2.9-2.913-1-1-1.987-2.008-3-3a3.525,3.525,0,0,0-5.3.011c-1.248,1.228-2.445,2.486-3.714,3.693a6.032,6.032,0,0,0-1.894,4.069,17.224,17.224,0,0,0,1.332,7.418,45.083,45.083,0,0,0,8,13.329,49.527,49.527,0,0,0,16.4,12.829,23.726,23.726,0,0,0,9.084,2.643,6.656,6.656,0,0,0,5.712-2.175c1.061-1.186,2.258-2.268,3.382-3.4a3.54,3.54,0,0,0,.02-5.39Q230,584.034,227.015,581.073Zm-1.987-8.293,3.839-.655a17.236,17.236,0,0,0-14.577-14.14l-0.541,3.86A13.322,13.322,0,0,1,225.028,572.78Zm6-16.689A28.315,28.315,0,0,0,214.8,548l-0.542,3.86a24.7,24.7,0,0,1,20.9,20.259l3.839-.656A28.515,28.515,0,0,0,231.031,556.091Z" transform="translate(-189 -548)"/>
</svg>
